<svg xmlns="http://www.w3.org/2000/svg" viewBox="0 0 24 24" fill="#D4AF37" stroke="#D4AF37" stroke-width="2" stroke-linecap="round" stroke-linejoin="round">
  <path d="M20 21v-8a2 2 0 0 0-2-2H6a2 2 0 0 0-2 2v8"/>
  <path d="M4 16s.5-1 2-1 2.5 2 4 2 2.5-2 4-2 2.5 2 4 2 2-1 2-1"/>
  <path d="M2 21h20"/>
  <path d="M7 8v3"/>
  <path d="M12 8v3"/>
  <path d="M17 8v3"/>
  <circle cx="7" cy="4" r="1" fill="#e11d48" stroke="none"/>
  <circle cx="12" cy="4" r="1" fill="#e11d48" stroke="none"/>
  <circle cx="17" cy="4" r="1" fill="#e11d48" stroke="none"/>
</svg>